<?xml version="1.0" standalone="no"?>
<!DOCTYPE svg PUBLIC "-//W3C//DTD SVG 1.1//EN" "http://www.w3.org/Graphics/SVG/1.1/DTD/svg11.dtd" >
<svg xmlns="http://www.w3.org/2000/svg">
<metadata>
This is a custom SVG webfont generated by Font Squirrel.
Copyright   : Copyright triaChlis 2011
Designer    : triaChlis
Foundry     : httpfontstructcom
Foundry URL : httpwwwfontshopcom
</metadata>
<defs>
<font id="MyPhoneN1280Regular" horiz-adv-x="960" >
<font-face units-per-em="2048" ascent="1638" descent="-410" />
<missing-glyph horiz-adv-x="384" />
<glyph unicode=" "  horiz-adv-x="384" />
<glyph unicode="&#x09;" horiz-adv-x="384" />
<glyph unicode="&#xa0;" horiz-adv-x="384" />
<glyph unicode="!" horiz-adv-x="448" d="M0 0v256h256v-256h-256zM0 384v768h256v-768h-256z" />
<glyph unicode="&#x22;" horiz-adv-x="576" d="M0 896v384h128v-384h-128zM256 896v384h128v-384h-128z" />
<glyph unicode="#" horiz-adv-x="1216" d="M0 256v128h256v384h-128v128h256v256h128v-256h256v256h128v-256h128v-128h-256v-384h128v-128h-256v-256h-128v256h-256v-256h-128v256h-128zM384 384h256v384h-256v-384z" />
<glyph unicode="$" horiz-adv-x="832" d="M0 128v128h384v256h-256v128h-128v256h128v128h128v256h128v-256h256v-128h-384v-256h256v-128h128v-256h-128v-128h-128v-256h-128v256h-256z" />
<glyph unicode="%" horiz-adv-x="1344" d="M0 640v384h128v-384h-128zM128 0v128h128v-128h-128zM128 512v128h256v-128h-256zM128 1024v128h256v-128h-256zM256 128v128h128v-128h-128zM384 256v256h128v-256h-128zM384 640v384h128v-384h-128zM512 512v128h128v-128h-128zM640 128v384h128v-384h-128zM640 640 v256h128v-256h-128zM768 0v128h256v-128h-256zM768 512v128h256v-128h-256zM768 896v128h128v-128h-128zM896 1024v128h128v-128h-128zM1024 128v384h128v-384h-128z" />
<glyph unicode="&#x26;" horiz-adv-x="1088" d="M0 128v384h128v128h-128v384h128v128h512v-128h-384v-384h256v128h256v-128h128v-128h-128v-512h-640v128h-128zM256 128h256v384h-256v-384z" />
<glyph unicode="'" horiz-adv-x="320" d="M0 896v384h128v-384h-128z" />
<glyph unicode="(" horiz-adv-x="576" d="M0 0v1024h128v128h128v128h128v-256h-128v-1024h128v-256h-128v128h-128v128h-128z" />
<glyph unicode=")" horiz-adv-x="576" d="M0 0h128v1024h-128v256h128v-128h128v-128h128v-1024h-128v-128h-128v-128h-128v256z" />
<glyph unicode="*" horiz-adv-x="832" d="M0 384v128h128v-128h-128zM0 896v128h128v-128h-128zM128 512v128h128v128h-128v128h128v256h128v-256h128v-128h-128v-128h128v-128h-128v-256h-128v256h-128zM512 384v128h128v-128h-128zM512 896v128h128v-128h-128z" />
<glyph unicode="+" horiz-adv-x="832" d="M0 512v128h256v256h128v-256h256v-128h-256v-256h-128v256h-256z" />
<glyph unicode="," horiz-adv-x="448" d="M0 0v256h256v-384h-128v128h-128zM0 -128h128v-128h-128v128z" />
<glyph unicode="-" horiz-adv-x="576" d="M0 384v256h384v-256h-384z" />
<glyph unicode="." horiz-adv-x="448" d="M0 0v256h256v-256h-256z" />
<glyph unicode="/" horiz-adv-x="704" d="M0 128h128v-384h-128v384zM128 128v384h128v-384h-128zM256 512v384h128v-384h-128zM384 896v384h128v-384h-128z" />
<glyph unicode="0" d="M0 128v896h128v128h512v-128h128v-896h-128v-128h-512v128h-128zM256 128h256v896h-256v-896z" />
<glyph unicode="1" d="M0 0v128h256v768h-128v128h128v128h256v-1024h256v-128h-768zM0 768v128h128v-128h-128z" />
<glyph unicode="2" d="M0 0v256h128v128h128v128h128v128h128v384h-256v-128h-256v128h128v128h512v-128h128v-384h-128v-128h-128v-128h-128v-128h-128v-128h512v-128h-768z" />
<glyph unicode="3" d="M0 128v128h256v-128h256v384h-256v128h256v384h-256v-128h-256v128h128v128h512v-128h128v-384h-128v-128h128v-384h-128v-128h-512v128h-128z" />
<glyph unicode="4" d="M0 256v384h128v-256h256v512h-128v128h128v128h256v-768h128v-128h-128v-256h-256v256h-384zM128 640v256h128v-256h-128z" />
<glyph unicode="5" d="M0 128v128h256v-128h256v512h-512v512h768v-128h-512v-256h384v-128h128v-512h-128v-128h-512v128h-128z" />
<glyph unicode="6" d="M0 128v768h128v128h128v128h384v-128h-256v-128h-128v-256h384v-128h128v-384h-128v-128h-512v128h-128zM256 128h256v384h-256v-384z" />
<glyph unicode="7" d="M0 1024v128h768v-256h-128v-256h-128v-256h-128v-384h-256v384h128v256h128v256h128v128h-512z" />
<glyph unicode="8" d="M0 128v384h128v128h-128v384h128v128h512v-128h128v-384h-128v-128h128v-384h-128v-128h-512v128h-128zM256 128h256v384h-256v-384zM256 640h256v384h-256v-384z" />
<glyph unicode="9" d="M0 640v384h128v128h512v-128h128v-768h-128v-128h-128v-128h-384v128h256v128h128v256h-384v128h-128zM256 640h256v384h-256v-384z" />
<glyph unicode=":" horiz-adv-x="448" d="M0 0v256h256v-256h-256zM0 512v256h256v-256h-256z" />
<glyph unicode=";" horiz-adv-x="448" d="M0 0v256h256v-384h-128v128h-128zM0 -128h128v-128h-128v128zM0 512v256h256v-256h-256z" />
<glyph unicode="&#x3c;" horiz-adv-x="832" d="M0 512v128h128v128h128v128h128v128h256v-128h-128v-128h-128v-128h-128v-128h128v-128h128v-128h128v-128h-256v128h-128v128h-128v128h-128z" />
<glyph unicode="=" horiz-adv-x="832" d="M0 384v128h640v-128h-640zM0 640v128h640v-128h-640z" />
<glyph unicode="&#x3e;" horiz-adv-x="832" d="M0 128v128h128v128h128v128h128v128h-128v128h-128v128h-128v128h256v-128h128v-128h128v-128h128v-128h-128v-128h-128v-128h-128v-128h-256z" />
<glyph unicode="?" horiz-adv-x="832" d="M0 1024v128h512v-128h128v-256h-128v-128h-128v-256h-256v256h128v128h128v256h-384zM128 0v256h256v-256h-256z" />
<glyph unicode="@" horiz-adv-x="1088" d="M0 128v768h128v-768h-128zM128 0v128h128v-128h-128zM128 896v128h128v-128h-128zM256 0h512v-128h-512v128zM256 256v384h128v-256h128v256h-128v128h256v-384h128v-128h-512zM256 1024v128h384v-128h-384zM640 896v128h128v-128h-128zM768 0v128h128v-128h-128z M768 384v512h128v-512h-128z" />
<glyph unicode="A" d="M0 0v768h128v256h128v128h256v-128h128v-256h128v-768h-256v256h-256v-256h-256zM256 384h256v512h-256v-512z" />
<glyph unicode="B" d="M0 0v1152h640v-128h128v-384h-128v-128h128v-384h-128v-128h-640zM256 128h256v384h-256v-384zM256 640h256v384h-256v-384z" />
<glyph unicode="C" horiz-adv-x="832" d="M0 128v896h128v128h512v-128h-384v-896h384v-128h-512v128h-128z" />
<glyph unicode="D" horiz-adv-x="1088" d="M0 0v1152h640v-128h128v-128h128v-640h-128v-128h-128v-128h-640zM256 128h256v128h128v640h-128v128h-256v-896z" />
<glyph unicode="E" horiz-adv-x="832" d="M0 0v1152h640v-128h-384v-384h384v-128h-384v-384h384v-128h-640z" />
<glyph unicode="F" horiz-adv-x="832" d="M0 0v1152h640v-128h-384v-384h384v-128h-384v-512h-256z" />
<glyph unicode="G" d="M0 128v896h128v128h640v-128h-512v-896h256v-128h-384v128h-128zM384 512v128h384v-640h-128v128h-128v384h-128z" />
<glyph unicode="H" horiz-adv-x="1088" d="M0 0v1152h256v-512h384v512h256v-1152h-256v512h-384v-512h-256z" />
<glyph unicode="I" horiz-adv-x="704" d="M0 0v128h128v896h-128v128h512v-128h-128v-896h128v-128h-512z" />
<glyph unicode="J" horiz-adv-x="704" d="M0 -128h128v1152h-128v128h512v-128h-128v-1152h-128v-128h-256v128z" />
<glyph unicode="K" d="M0 0v1152h256v-512h128v256h128v256h256v-256h-128v-256h-128v-128h128v-256h128v-256h-256v256h-128v256h-128v-512h-256z" />
<glyph unicode="L" horiz-adv-x="832" d="M0 0v1152h256v-1024h384v-128h-640z" />
<glyph unicode="M" horiz-adv-x="1088" d="M0 0v1152h128v-128h128v-128h128v-128h128v128h128v128h128v128h128v-1152h-256v640h-128v-128h-128v128h-128v-640h-256z" />
<glyph unicode="N" horiz-adv-x="1088" d="M0 0v1152h128v-128h128v-128h128v-128h128v-256h128v640h256v-1152h-128v128h-128v128h-128v128h-128v256h-128v-640h-256z" />
<glyph unicode="O" horiz-adv-x="1088" d="M0 128v896h128v128h640v-128h128v-896h-128v-128h-640v128h-128zM256 128h384v896h-384v-896z" />
<glyph unicode="P" d="M0 0v1152h640v-128h128v-512h-128v-128h-384v-384h-256zM256 512h256v512h-256v-512z" />
<glyph unicode="Q" horiz-adv-x="1088" d="M0 128v896h128v128h640v-128h128v-896h-128v-128h-128v-128h128v-128h-256v128h-128v128h-256v128h-128zM256 128h384v896h-384v-896z" />
<glyph unicode="R" d="M0 0v1152h640v-128h128v-384h-128v-128h128v-512h-256v512h-256v-512h-256zM256 640h256v384h-256v-384z" />
<glyph unicode="S" horiz-adv-x="832" d="M0 0v128h384v256h-128v128h-128v128h-128v384h128v128h512v-128h-384v-256h128v-128h128v-128h128v-384h-128v-128h-512z" />
<glyph unicode="T" d="M0 1024v128h768v-128h-256v-1024h-256v1024h-256z" />
<glyph unicode="U" horiz-adv-x="1088" d="M0 128v1024h256v-1024h384v1024h256v-1024h-128v-128h-640v128h-128z" />
<glyph unicode="V" d="M0 384v768h256v-896h256v896h256v-768h-128v-256h-128v-128h-256v128h-128v256h-128z" />
<glyph unicode="W" horiz-adv-x="1472" d="M0 384v768h256v-896h256v896h256v-896h256v896h256v-768h-128v-256h-128v-128h-256v128h-256v-128h-256v128h-128v256h-128z" />
<glyph unicode="X" d="M0 0v384h128v128h128v128h-128v128h-128v384h256v-384h256v384h256v-384h-128v-128h-128v-128h128v-128h128v-384h-256v384h-256v-384h-256z" />
<glyph unicode="Y" d="M0 768v384h256v-512h256v512h256v-384h-128v-256h-128v-512h-256v512h-128v256h-128z" />
<glyph unicode="Z" d="M0 0v256h128v256h128v128h128v256h128v128h-512v128h768v-256h-128v-256h-128v-128h-128v-256h-128v-128h512v-128h-768z" />
<glyph unicode="[" horiz-adv-x="576" d="M0 -256v1536h384v-128h-128v-1280h128v-128h-384z" />
<glyph unicode="\" horiz-adv-x="704" d="M0 896v384h128v-384h-128zM128 512v384h128v-384h-128zM256 128v384h128v-384h-128zM384 128h128v-384h-128v384z" />
<glyph unicode="]" horiz-adv-x="576" d="M0 -128h128v1280h-128v128h384v-1536h-384v128z" />
<glyph unicode="^" horiz-adv-x="832" d="M0 512v256h128v-256h-128zM128 768v256h128v-256h-128zM256 1024v128h128v-128h-128zM384 768v256h128v-256h-128zM512 512v256h128v-256h-128z" />
<glyph unicode="_" horiz-adv-x="576" d="M0 -128h384v-128h-384v128z" />
<glyph unicode="a" d="M0 128v256h128v128h384v256h-384v128h512v-128h128v-768h-128v128h-128v256h-256v-256h256v-128h-384v128h-128z" />
<glyph unicode="b" d="M0 0v1280h256v-384h384v-128h128v-640h-128v-128h-384v128h256v640h-256v-640h-128v-128h-128z" />
<glyph unicode="c" horiz-adv-x="832" d="M0 128v640h128v128h512v-128h-384v-640h384v-128h-512v128h-128z" />
<glyph unicode="d" d="M0 128v640h128v128h384v384h256v-1280h-128v128h-128v640h-256v-640h256v-128h-384v128h-128z" />
<glyph unicode="e" d="M0 128v640h128v128h512v-128h128v-384h-512v-256h512v-128h-640v128h-128zM256 512h256v256h-256v-256z" />
<glyph unicode="f" horiz-adv-x="704" d="M0 768v128h128v256h128v128h256v-128h-128v-256h128v-128h-128v-768h-256v768h-128z" />
<glyph unicode="g" d="M0 128v640h128v128h384v-128h-256v-640h256v640h128v128h128v-1024h-128v-128h-512v128h384v128h-384v128h-128z" />
<glyph unicode="h" d="M0 0v1280h256v-384h384v-128h128v-768h-256v768h-256v-768h-256z" />
<glyph unicode="i" horiz-adv-x="448" d="M0 0v896h256v-896h-256zM0 1024v256h256v-256h-256z" />
<glyph unicode="j" horiz-adv-x="576" d="M0 -128h128v1024h256v-1024h-128v-128h-256v128zM128 1024v256h256v-256h-256z" />
<glyph unicode="k" d="M0 0v1280h256v-768h128v128h128v256h256v-256h-128v-128h-128v-128h128v-128h128v-256h-256v256h-128v128h-128v-384h-256z" />
<glyph unicode="l" horiz-adv-x="448" d="M0 0v1280h256v-1280h-256z" />
<glyph unicode="m" horiz-adv-x="1472" d="M0 0v896h128v-128h128v-768h-256zM256 768v128h384v-128h128v-768h-256v768h-256zM768 768v128h384v-128h128v-768h-256v768h-256z" />
<glyph unicode="n" d="M0 0v896h128v-128h128v-768h-256zM256 768v128h384v-128h128v-768h-256v768h-256z" />
<glyph unicode="o" d="M0 128v640h128v128h512v-128h128v-640h-128v-128h-512v128h-128zM256 128h256v640h-256v-640z" />
<glyph unicode="p" d="M0 -256v1152h128v-128h128v-640h256v640h-256v128h384v-128h128v-640h-128v-128h-384v-256h-256z" />
<glyph unicode="q" d="M0 128v640h128v128h384v-128h-256v-640h256v640h128v128h128v-1152h-256v256h-384v128h-128z" />
<glyph unicode="r" horiz-adv-x="704" d="M0 0v896h128v-128h128v128h256v-256h-256v-640h-256z" />
<glyph unicode="s" horiz-adv-x="832" d="M0 0v128h384v128h-128v128h-128v128h-128v256h128v128h512v-128h-384v-128h128v-128h128v-128h128v-256h-128v-128h-512z" />
<glyph unicode="t" horiz-adv-x="704" d="M0 768v128h128v128h128v128h128v-256h128v-128h-128v-640h128v-128h-256v128h-128v640h-128z" />
<glyph unicode="u" d="M0 128v768h256v-768h256v-128h-384v128h-128zM512 128v768h256v-896h-128v128h-128z" />
<glyph unicode="v" d="M0 384v512h256v-640h256v640h256v-512h-128v-256h-128v-128h-256v128h-128v256h-128z" />
<glyph unicode="w" horiz-adv-x="1472" d="M0 384v512h256v-640h256v640h256v-640h256v640h256v-512h-128v-256h-128v-128h-256v128h-256v-128h-256v128h-128v256h-128z" />
<glyph unicode="x" d="M0 0v256h128v128h128v128h-128v128h-128v256h256v-256h256v256h256v-256h-128v-128h-128v-128h128v-128h128v-256h-256v256h-256v-256h-256z" />
<glyph unicode="y" d="M0 0h256v256h-128v256h-128v384h256v-384h128v-256h128v640h256v-512h-128v-256h-128v-128h-128v-128h-128v-128h-256v256z" />
<glyph unicode="z" d="M0 0v256h128v128h128v128h128v128h128v128h-512v128h768v-256h-128v-128h-128v-128h-128v-128h-128v-128h512v-128h-768z" />
<glyph unicode="{" horiz-adv-x="832" d="M0 512v128h128v512h128v128h384v-128h-256v-512h-128v-128h128v-640h256v-128h-384v128h-128v640h-128z" />
<glyph unicode="|" horiz-adv-x="448" d="M0 -256v1536h256v-1536h-256z" />
<glyph unicode="}" horiz-adv-x="832" d="M0 -128h256v640h128v128h-128v512h-256v128h384v-128h128v-512h128v-128h-128v-640h-128v-128h-384v128z" />
<glyph unicode="~" horiz-adv-x="832" d="M0 384v128h128v-128h-128zM128 512v128h256v-128h128v-128h-256v128h-128zM512 512v128h128v-128h-128z" />
<glyph unicode="&#xa1;" horiz-adv-x="448" d="M0 -256v768h256v-768h-256zM0 640v256h256v-256h-256z" />
<glyph unicode="&#xa3;" d="M0 0v256h128v256h-128v128h128v384h128v128h512v-128h-384v-384h256v-128h-256v-256h-128v-128h512v-128h-768z" />
<glyph unicode="&#xa7;" horiz-adv-x="1088" d="M0 0v128h256v-128h384v256h-512v128h-128v256h128v128h-128v256h128v128h640v-128h128v-128h-256v128h-384v-256h512v-128h128v-256h-128v-128h128v-256h-128v-128h-640v128h-128zM256 384h384v256h-384v-256z" />
<glyph unicode="&#xaa;" d="M0 128v256h128v128h384v256h-384v128h512v-128h128v-768h-128v128h-128v256h-256v-256h256v-128h-384v128h-128z" />
<glyph unicode="&#xad;" horiz-adv-x="576" d="M0 384v256h384v-256h-384z" />
<glyph unicode="&#xb2;" d="M0 0v256h128v128h128v128h128v128h128v384h-256v-128h-256v128h128v128h512v-128h128v-384h-128v-128h-128v-128h-128v-128h-128v-128h512v-128h-768z" />
<glyph unicode="&#xb3;" d="M0 128v128h256v-128h256v384h-256v128h256v384h-256v-128h-256v128h128v128h512v-128h128v-384h-128v-128h128v-384h-128v-128h-512v128h-128z" />
<glyph unicode="&#xb9;" d="M0 0v128h256v768h-128v128h128v128h256v-1024h256v-128h-768zM0 768v128h128v-128h-128z" />
<glyph unicode="&#xba;" d="M0 128v640h128v128h512v-128h128v-640h-128v-128h-512v128h-128zM256 128h256v640h-256v-640z" />
<glyph unicode="&#xbf;" horiz-adv-x="832" d="M0 -128v256h128v128h128v256h256v-256h-128v-128h-128v-256h384v-128h-512v128h-128zM256 640v256h256v-256h-256z" />
<glyph unicode="&#xc2;" d="M64 1274v256h128v-256h-128zM192 1530v256h128v-256h-128zM320 1786v128h128v-128h-128zM448 1530v256h128v-256h-128zM576 1274v256h128v-256h-128zM0 0v768h128v256h128v128h256v-128h128v-256h128v-768h-256v256h-256v-256h-256zM256 384h256v512h-256v-512z" />
<glyph unicode="&#xc3;" d="M64 1274v128h128v-128h-128zM192 1402v128h256v-128h128v-128h-256v128h-128zM576 1402v128h128v-128h-128zM0 0v768h128v256h128v128h256v-128h128v-256h128v-768h-256v256h-256v-256h-256zM256 384h256v512h-256v-512z" />
<glyph unicode="&#xc6;" horiz-adv-x="1216" d="M0 0v768h128v256h128v128h256v-128h128v128h384v-128h-256v-384h256v-128h-256v-384h256v-128h-512v256h-256v-256h-256zM256 384h256v512h-256v-512z" />
<glyph unicode="&#xc7;" horiz-adv-x="832" d="M0 128v896h128v128h512v-128h-384v-896h384v-128h-256v-128h-128v128h-128v128h-128zM128 -128h128v-128h-128v128z" />
<glyph unicode="&#xca;" horiz-adv-x="832" d="M0 1274v256h128v-256h-128zM128 1530v256h128v-256h-128zM256 1786v128h128v-128h-128zM384 1530v256h128v-256h-128zM512 1274v256h128v-256h-128zM0 0v1152h640v-128h-384v-384h384v-128h-384v-384h384v-128h-640z" />
<glyph unicode="&#xce;" horiz-adv-x="704" d="M-64 1274v256h128v-256h-128zM64 1530v256h128v-256h-128zM192 1786v128h128v-128h-128zM320 1530v256h128v-256h-128zM448 1274v256h128v-256h-128zM0 0v128h128v896h-128v128h512v-128h-128v-896h128v-128h-512z" />
<glyph unicode="&#xd0;" horiz-adv-x="1216" d="M0 512v128h128v512h640v-128h128v-128h128v-640h-128v-128h-128v-128h-640v512h-128zM384 128h256v128h128v640h-128v128h-256v-384h256v-128h-256v-384z" />
<glyph unicode="&#xd1;" horiz-adv-x="1088" d="M128 1274v128h128v-128h-128zM256 1402v128h256v-128h128v-128h-256v128h-128zM640 1402v128h128v-128h-128zM0 0v1152h128v-128h128v-128h128v-128h128v-256h128v640h256v-1152h-128v128h-128v128h-128v128h-128v256h-128v-640h-256z" />
<glyph unicode="&#xd4;" horiz-adv-x="1088" d="M128 1274v256h128v-256h-128zM256 1530v256h128v-256h-128zM384 1786v128h128v-128h-128zM512 1530v256h128v-256h-128zM640 1274v256h128v-256h-128zM0 128v896h128v128h640v-128h128v-896h-128v-128h-640v128h-128zM256 128h384v896h-384v-896z" />
<glyph unicode="&#xd5;" horiz-adv-x="1088" d="M128 1274v128h128v-128h-128zM256 1402v128h256v-128h128v-128h-256v128h-128zM640 1402v128h128v-128h-128zM0 128v896h128v128h640v-128h128v-896h-128v-128h-640v128h-128zM256 128h384v896h-384v-896z" />
<glyph unicode="&#xdb;" horiz-adv-x="1088" d="M128 1274v256h128v-256h-128zM256 1530v256h128v-256h-128zM384 1786v128h128v-128h-128zM512 1530v256h128v-256h-128zM640 1274v256h128v-256h-128zM0 128v1024h256v-1024h384v1024h256v-1024h-128v-128h-640v128h-128z" />
<glyph unicode="&#xde;" d="M0 0v1152h256v-256h384v-128h128v-384h-128v-128h-384v-256h-256zM256 384h256v384h-256v-384z" />
<glyph unicode="&#xdf;" d="M0 0v1152h128v128h512v-128h128v-384h-128v-128h128v-512h-128v-128h-256v128h128v512h-128v128h128v384h-256v-1152h-256z" />
<glyph unicode="&#xe2;" d="M64 1018v256h128v-256h-128zM192 1274v256h128v-256h-128zM320 1530v128h128v-128h-128zM448 1274v256h128v-256h-128zM576 1018v256h128v-256h-128zM0 128v256h128v128h384v256h-384v128h512v-128h128v-768h-128v128h-128v256h-256v-256h256v-128h-384v128h-128z" />
<glyph unicode="&#xe3;" d="M64 1018v128h128v-128h-128zM192 1146v128h256v-128h128v-128h-256v128h-128zM576 1146v128h128v-128h-128zM0 128v256h128v128h384v256h-384v128h512v-128h128v-768h-128v128h-128v256h-256v-256h256v-128h-384v128h-128z" />
<glyph unicode="&#xe6;" horiz-adv-x="1472" d="M0 128v256h128v128h384v256h-384v128h512v-128h128v-256h256v256h-256v128h384v-128h128v-384h-512v-256h512v-128h-640v128h-128v256h-256v-256h256v-128h-384v128h-128z" />
<glyph unicode="&#xea;" d="M64 1018v256h128v-256h-128zM192 1274v256h128v-256h-128zM320 1530v128h128v-128h-128zM448 1274v256h128v-256h-128zM576 1018v256h128v-256h-128zM0 128v640h128v128h512v-128h128v-384h-512v-256h512v-128h-640v128h-128zM256 512h256v256h-256v-256z" />
<glyph unicode="&#xee;" horiz-adv-x="448" d="M-192 1402v256h128v-256h-128zM-64 1658v256h128v-256h-128zM64 1914v128h128v-128h-128zM192 1658v256h128v-256h-128zM320 1402v256h128v-256h-128zM0 0v896h256v-896h-256zM0 1024v256h256v-256h-256z" />
<glyph unicode="&#xf1;" d="M64 1018v128h128v-128h-128zM192 1146v128h256v-128h128v-128h-256v128h-128zM576 1146v128h128v-128h-128zM0 0v896h128v-128h128v-768h-256zM256 768v128h384v-128h128v-768h-256v768h-256z" />
<glyph unicode="&#xf4;" d="M64 1018v256h128v-256h-128zM192 1274v256h128v-256h-128zM320 1530v128h128v-128h-128zM448 1274v256h128v-256h-128zM576 1018v256h128v-256h-128zM0 128v640h128v128h512v-128h128v-640h-128v-128h-512v128h-128zM256 128h256v640h-256v-640z" />
<glyph unicode="&#xf5;" d="M64 1018v128h128v-128h-128zM192 1146v128h256v-128h128v-128h-256v128h-128zM576 1146v128h128v-128h-128zM0 128v640h128v128h512v-128h128v-640h-128v-128h-512v128h-128zM256 128h256v640h-256v-640z" />
<glyph unicode="&#xfb;" d="M64 1018v256h128v-256h-128zM192 1274v256h128v-256h-128zM320 1530v128h128v-128h-128zM448 1274v256h128v-256h-128zM576 1018v256h128v-256h-128zM0 128v768h256v-768h256v-128h-384v128h-128zM512 128v768h256v-896h-128v128h-128z" />
<glyph unicode="&#x152;" horiz-adv-x="1920" d="M1088 0v1152h640v-128h-384v-384h384v-128h-384v-384h384v-128h-640zM0 128v896h128v128h640v-128h128v-896h-128v-128h-640v128h-128zM256 128h384v896h-384v-896z" />
<glyph unicode="&#x153;" horiz-adv-x="1920" d="M960 128v640h128v128h512v-128h128v-384h-512v-256h512v-128h-640v128h-128zM1216 512h256v256h-256v-256zM0 128v640h128v128h512v-128h128v-640h-128v-128h-512v128h-128zM256 128h256v640h-256v-640z" />
<glyph unicode="&#x2c6;" horiz-adv-x="832" d="M0 512v256h128v-256h-128zM128 768v256h128v-256h-128zM256 1024v128h128v-128h-128zM384 768v256h128v-256h-128zM512 512v256h128v-256h-128z" />
<glyph unicode="&#x2dc;" horiz-adv-x="384" d="M-320 122v128h128v-128h-128zM-192 250v128h256v-128h128v-128h-256v128h-128zM192 250v128h128v-128h-128z" />
<glyph unicode="&#x2000;" horiz-adv-x="1020" />
<glyph unicode="&#x2001;" horiz-adv-x="2042" />
<glyph unicode="&#x2002;" horiz-adv-x="1020" />
<glyph unicode="&#x2003;" horiz-adv-x="2042" />
<glyph unicode="&#x2004;" horiz-adv-x="680" />
<glyph unicode="&#x2005;" horiz-adv-x="510" />
<glyph unicode="&#x2006;" horiz-adv-x="340" />
<glyph unicode="&#x2007;" horiz-adv-x="340" />
<glyph unicode="&#x2008;" horiz-adv-x="254" />
<glyph unicode="&#x2009;" horiz-adv-x="408" />
<glyph unicode="&#x200a;" horiz-adv-x="112" />
<glyph unicode="&#x2010;" horiz-adv-x="576" d="M0 384v256h384v-256h-384z" />
<glyph unicode="&#x2011;" horiz-adv-x="576" d="M0 384v256h384v-256h-384z" />
<glyph unicode="&#x2012;" horiz-adv-x="576" d="M0 384v256h384v-256h-384z" />
<glyph unicode="&#x2013;" horiz-adv-x="1024" d="M0 384v256h832v-256h-832z" />
<glyph unicode="&#x2014;" horiz-adv-x="2048" d="M0 384v256h1856v-256h-1856z" />
<glyph unicode="&#x2019;" horiz-adv-x="320" d="M0 896v384h128v-384h-128z" />
<glyph unicode="&#x201c;" horiz-adv-x="576" d="M0 896v384h128v-384h-128zM256 896v384h128v-384h-128z" />
<glyph unicode="&#x201d;" horiz-adv-x="576" d="M0 896v384h128v-384h-128zM256 896v384h128v-384h-128z" />
<glyph unicode="&#x2026;" horiz-adv-x="1344" d="M896 0v256h256v-256h-256zM448 0v256h256v-256h-256zM0 0v256h256v-256h-256z" />
<glyph unicode="&#x202f;" horiz-adv-x="408" />
<glyph unicode="&#x2039;" horiz-adv-x="832" d="M0 512v128h128v128h128v128h128v128h256v-128h-128v-128h-128v-128h-128v-128h128v-128h128v-128h128v-128h-256v128h-128v128h-128v128h-128z" />
<glyph unicode="&#x203a;" horiz-adv-x="832" d="M0 128v128h128v128h128v128h128v128h-128v128h-128v128h-128v128h256v-128h128v-128h128v-128h128v-128h-128v-128h-128v-128h-128v-128h-256z" />
<glyph unicode="&#x205f;" horiz-adv-x="510" />
<glyph unicode="&#x2122;" horiz-adv-x="2048" d="M960 0v1152h128v-128h128v-128h128v-128h128v128h128v128h128v128h128v-1152h-256v640h-128v-128h-128v128h-128v-640h-256zM0 1024v128h768v-128h-256v-1024h-256v1024h-256z" />
<glyph unicode="&#xe000;" horiz-adv-x="895" d="M0 895h895v-895h-895v895z" />
<glyph unicode="&#xfb01;" horiz-adv-x="1152" d="M704 0v896h256v-896h-256zM704 1024v256h256v-256h-256zM0 768v128h128v256h128v128h256v-128h-128v-256h128v-128h-128v-768h-256v768h-128z" />
<glyph unicode="&#xfb02;" horiz-adv-x="1152" d="M704 0v1280h256v-1280h-256zM0 768v128h128v256h128v128h256v-128h-128v-256h128v-128h-128v-768h-256v768h-128z" />
<glyph unicode="&#xfb03;" horiz-adv-x="1856" d="M1408 0v896h256v-896h-256zM1408 1024v256h256v-256h-256zM704 768v128h128v256h128v128h256v-128h-128v-256h128v-128h-128v-768h-256v768h-128zM0 768v128h128v256h128v128h256v-128h-128v-256h128v-128h-128v-768h-256v768h-128z" />
<glyph unicode="&#xfb04;" horiz-adv-x="1856" d="M1408 0v1280h256v-1280h-256zM704 768v128h128v256h128v128h256v-128h-128v-256h128v-128h-128v-768h-256v768h-128zM0 768v128h128v256h128v128h256v-128h-128v-256h128v-128h-128v-768h-256v768h-128z" />
</font>
</defs>
</svg>
